<svg width="126" height="160" viewBox="0 0 126 160" fill="none" xmlns="http://www.w3.org/2000/svg">
<path fill-rule="evenodd" clip-rule="evenodd" d="M63 36.6441C70.2761 32.441 88.5127 26.8822 106.205 36.851C108.547 38.2584 112.106 41.777 107.61 44.5918C105.923 45.6482 105.249 46.0703 105.303 46.3532C105.428 47.0125 109.509 46.9159 113.933 52.3326C120.256 60.0734 128.686 81.8884 125.173 97.3699C122.891 107.431 121.795 103.821 120.536 99.6727C119.858 97.4382 119.132 95.0479 118.148 94.5551C117.193 94.0768 117.293 95.6303 117.482 98.5804C117.851 104.311 118.557 115.312 112.528 126.926C103.395 144.518 93.5598 148.037 93.5598 141C93.5598 136.75 92.5349 138.66 90.9494 141.615C89.9095 143.552 88.6284 145.94 87.2371 147.333C83.7899 150.786 75.6067 158.983 63.3513 159.953V160C63.2338 159.994 63.1167 159.986 62.9999 159.978C62.8832 159.986 62.7661 159.993 62.6487 160V159.953C50.3933 158.983 42.2101 150.786 38.7629 147.333C37.3716 145.94 36.0905 143.552 35.0506 141.615C33.4651 138.66 32.4402 136.75 32.4402 141C32.4402 148.037 22.6048 144.518 13.472 126.926C7.44287 115.312 8.14943 104.311 8.51751 98.5805C8.70699 95.6304 8.80678 94.0768 7.85179 94.5551C6.86797 95.0479 6.14248 97.4382 5.4643 99.6727C4.20537 103.821 3.10945 107.431 0.826593 97.37C-2.68603 81.8884 5.74427 60.0734 12.067 52.3326C16.4914 46.9159 20.5718 47.0125 20.6974 46.3532C20.7513 46.0703 20.0771 45.6482 18.3897 44.5918C13.8935 41.777 17.453 38.2585 19.7947 36.8511C37.4873 26.8822 55.7238 32.441 63 36.6441Z" fill="#FF872D"/>
<path fill-rule="evenodd" clip-rule="evenodd" d="M63.0002 59.8835C56.7388 55.9276 42.5841 50.7412 33.2391 60.1087C21.3879 71.9884 10.9247 127.001 62.6501 127.492V127.495C62.7675 127.495 62.8846 127.495 63.0014 127.494C63.1174 127.495 63.2337 127.495 63.3503 127.495V127.492C115.076 127.001 104.613 71.9884 92.7613 60.1087C83.4163 50.7413 69.2616 55.9276 63.0002 59.8835Z" fill="#FAD17B"/>
<path fill-rule="evenodd" clip-rule="evenodd" d="M62.5225 87.6761C66.4591 87.5463 73.1821 88.2048 73.1821 91.8528C73.1821 96.6887 65.3851 99.452 62.5498 99.452C62.541 99.452 62.5322 99.4519 62.5235 99.4517C62.5145 99.4519 62.5053 99.4521 62.4962 99.4521C59.6609 99.4521 51.8639 96.6887 51.8639 91.8529C51.8639 88.2051 58.5858 87.5464 62.5225 87.6761Z" fill="#985B2D"/>
<path fill-rule="evenodd" clip-rule="evenodd" d="M62.5228 96.584C63.3135 96.584 63.9546 97.2671 63.9546 98.1098V105.256C63.9546 106.098 63.3135 106.782 62.5228 106.782C61.732 106.782 61.0909 106.098 61.0909 105.256V98.1098C61.0909 97.2671 61.732 96.584 62.5228 96.584Z" fill="#985B2D"/>
<path fill-rule="evenodd" clip-rule="evenodd" d="M46.3642 79.185C46.7586 78.7834 47.3982 78.7834 47.7927 79.185C48.4692 79.8737 50.4667 81.2921 52.7556 81.2921C55.0445 81.2921 57.0421 79.8737 57.7186 79.185C58.113 78.7834 58.7526 78.7834 59.1471 79.185C59.5416 79.5866 59.5416 80.2378 59.1471 80.6394C58.2466 81.5562 55.7655 83.3489 52.7556 83.3489C49.7458 83.3489 47.2647 81.5562 46.3642 80.6394C45.9697 80.2378 45.9697 79.5866 46.3642 79.185Z" fill="#482B14" stroke="#482B14" stroke-linecap="round"/>
<path fill-rule="evenodd" clip-rule="evenodd" d="M66.4259 79.185C66.8204 78.7834 67.46 78.7834 67.8545 79.185C68.531 79.8737 70.5285 81.2921 72.8174 81.2921C75.1063 81.2921 77.1038 79.8737 77.7803 79.185C78.1748 78.7834 78.8144 78.7834 79.2089 79.185C79.6034 79.5866 79.6034 80.2378 79.2089 80.6394C78.3084 81.5562 75.8272 83.3489 72.8174 83.3489C69.8076 83.3489 67.3264 81.5562 66.4259 80.6394C66.0314 80.2378 66.0314 79.5866 66.4259 79.185Z" fill="#482B14" stroke="#482B14" stroke-linecap="round"/>
<path fill-rule="evenodd" clip-rule="evenodd" d="M97.8353 17.4075C97.8353 16.3848 98.6649 15.5557 99.6883 15.5557H106.359C107.075 15.5557 107.727 15.9679 108.033 16.6145C108.34 17.2611 108.246 18.0264 107.793 18.5802L103.598 23.7038H106.359C107.382 23.7038 108.212 24.5329 108.212 25.5557C108.212 26.5784 107.382 27.4075 106.359 27.4075H99.6883C98.9723 27.4075 98.3204 26.9953 98.0138 26.3487C97.7072 25.7021 97.8008 24.9368 98.2542 24.383L102.449 19.2594H99.6883C98.6649 19.2594 97.8353 18.4303 97.8353 17.4075Z" fill="#FAD17B"/>
<path fill-rule="evenodd" clip-rule="evenodd" d="M111.176 1.85185C111.176 0.829102 112.006 0 113.029 0H123.406C124.144 0 124.811 0.437493 125.105 1.1138C125.399 1.79011 125.264 2.57632 124.761 3.1154L117.293 11.1111H123.406C124.429 11.1111 125.259 11.9402 125.259 12.963C125.259 13.9857 124.429 14.8148 123.406 14.8148H113.029C112.292 14.8148 111.624 14.3773 111.33 13.701C111.036 13.0247 111.171 12.2385 111.675 11.6994L119.142 3.7037H113.029C112.006 3.7037 111.176 2.8746 111.176 1.85185Z" fill="#FAD17B"/>
</svg>
