<svg width="200" height="200" viewBox="0 0 200 200" fill="none" xmlns="http://www.w3.org/2000/svg">
    <rect x="1" y="68" width="176" height="63" rx="31.5" fill="#5F5F5F"/>
    <path d="M45.2375 107.7V89.28H42.7375V96.34H41.2375V89.58H38.7775V106.88H41.2375V98.5H42.7375V107.7H45.2375ZM35.0175 94.84V94.54H37.9375V92.4H35.0175V89.9H32.5175V92.4H29.5775V94.54H32.5175V94.84C32.5175 97.68 31.5775 100.72 28.9575 102.22L30.4375 104.2C32.1175 103.26 33.1775 101.64 33.7975 99.72C34.4575 101.48 35.4775 102.92 37.1575 103.78L38.5575 101.82C35.9575 100.44 35.0175 97.62 35.0175 94.84ZM60.3359 100.46H62.9959V89.3H60.3359V100.46ZM59.0559 99.16L58.8159 97.12C56.5159 97.44 54.5159 97.56 51.3159 97.56V96.12H57.0159V94.08H51.3159V92.66H57.5559V90.58H48.6959V99.64H50.2759C54.1759 99.64 56.4359 99.58 59.0559 99.16ZM56.7759 100.72C52.8559 100.72 50.4959 102.04 50.4959 104.22C50.4959 106.48 52.8559 107.74 56.7759 107.74C60.6759 107.74 63.0759 106.48 63.0759 104.22C63.0759 102.04 60.6759 100.72 56.7759 100.72ZM56.7759 105.7C54.3359 105.7 53.1159 105.2 53.1159 104.22C53.1159 103.24 54.3359 102.74 56.7759 102.74C59.2159 102.74 60.4359 103.24 60.4359 104.22C60.4359 105.2 59.2159 105.7 56.7759 105.7ZM87.5656 95.76V93.58H85.1256V89.32H82.4856V100.2H85.1256V95.76H87.5656ZM80.1056 99.5L81.4856 97.46C78.5856 96.54 77.3456 94.4 77.3456 92.18V90.3H74.6656V91.96C74.6656 94.46 73.4456 96.92 70.3456 97.94L71.7256 100.02C73.8256 99.3 75.2456 97.9 76.0456 96.06C76.8256 97.66 78.1656 98.86 80.1056 99.5ZM79.1056 100.62C75.2456 100.62 72.8656 101.94 72.8656 104.16C72.8656 106.4 75.2456 107.72 79.1056 107.72C82.9456 107.72 85.3256 106.4 85.3256 104.16C85.3256 101.94 82.9456 100.62 79.1056 100.62ZM79.1056 105.68C76.6856 105.68 75.4856 105.18 75.4856 104.16C75.4856 103.16 76.6856 102.66 79.1056 102.66C81.4456 102.66 82.7056 103.14 82.7056 104.16C82.7056 105.2 81.4456 105.68 79.1056 105.68ZM103.524 95.58H105.964V93.44H103.524V89.28H100.884V99.62H103.524V95.58ZM99.7041 98.4L99.4441 96.32C97.4641 96.74 95.6241 96.88 92.3441 96.88V92.54H97.9241V90.42H89.7241V99H91.2641C95.3641 99 97.4641 98.88 99.7041 98.4ZM103.524 100.42H91.5441V107.5H103.524V100.42ZM100.944 105.44H94.1441V102.5H100.944V105.44Z" fill="white"/>
    <path fill-rule="evenodd" clip-rule="evenodd" d="M157 60.5861C161.851 57.7888 174.008 54.0891 185.803 60.7238C187.365 61.6605 189.738 64.0023 186.74 65.8757C185.615 66.5788 185.166 66.8597 185.202 67.0479C185.285 67.4867 188.006 67.4225 190.955 71.0275C195.17 76.1794 200.791 90.6982 198.449 101.002C196.927 107.698 196.196 105.295 195.357 102.534C194.905 101.047 194.421 99.4565 193.765 99.1285C193.129 98.8102 193.195 99.8441 193.322 101.808C193.567 105.622 194.038 112.943 190.019 120.673C183.93 132.381 177.373 134.723 177.373 130.04C177.373 127.211 176.69 128.482 175.633 130.449C174.94 131.738 174.086 133.327 173.158 134.255C170.86 136.553 165.404 142.008 157.234 142.654V142.685C157.156 142.681 157.078 142.676 157 142.671C156.922 142.676 156.844 142.681 156.766 142.685V142.654C148.596 142.008 143.14 136.553 140.842 134.255C139.914 133.327 139.06 131.738 138.367 130.449C137.31 128.482 136.627 127.211 136.627 130.04C136.627 134.723 130.07 132.381 123.981 120.673C119.962 112.943 120.433 105.622 120.678 101.808C120.805 99.8441 120.871 98.8102 120.235 99.1285C119.579 99.4565 119.095 101.047 118.643 102.534C117.804 105.295 117.073 107.698 115.551 101.002C113.209 90.6982 118.83 76.1794 123.045 71.0275C125.994 67.4225 128.715 67.4868 128.798 67.0479C128.834 66.8597 128.385 66.5788 127.26 65.8757C124.262 64.0023 126.635 61.6605 128.196 60.7239C139.992 54.0891 152.149 57.7888 157 60.5861Z" fill="#FF872D"/>
    <path fill-rule="evenodd" clip-rule="evenodd" d="M157 76.0293C152.812 73.3898 143.345 69.9294 137.095 76.1796C129.169 84.1059 122.171 120.811 156.766 121.139V121.141C156.845 121.141 156.923 121.141 157.001 121.141C157.079 121.141 157.156 121.141 157.234 121.141V121.139C191.829 120.811 184.831 84.1059 176.905 76.1796C170.655 69.9294 161.188 73.3898 157 76.0293Z" fill="#FAD17B"/>
    <circle cx="150.126" cy="88.3793" r="2.34175" fill="#482B14"/>
    <circle cx="163.24" cy="88.3793" r="2.34175" fill="#482B14"/>
    <path fill-rule="evenodd" clip-rule="evenodd" d="M156.701 94.4784C159.302 94.3904 163.744 94.8368 163.744 97.31C163.744 100.588 158.592 102.462 156.719 102.462C156.713 102.462 156.707 102.462 156.701 102.462C156.695 102.462 156.689 102.462 156.683 102.462C154.81 102.462 149.658 100.588 149.658 97.31C149.658 94.8371 154.099 94.3905 156.701 94.4784Z" fill="#985B2D"/>
    <path d="M156.683 101.493V106.177" stroke="#985B2D" stroke-width="2" stroke-linecap="round"/>
    <path d="M151.063 104.772C151.844 105.552 154.06 107.113 156.683 107.113C159.306 107.113 161.523 105.552 162.303 104.772" stroke="#985B2D" stroke-width="2" stroke-linecap="round"/>
</svg>
