<svg width="198" height="86" viewBox="0 0 198 86" fill="none" xmlns="http://www.w3.org/2000/svg">
<rect y="11" width="176" height="63" rx="31.5" fill="#5F5F5F"/>
<path d="M44.2375 50.7V32.28H41.7375V39.34H40.2375V32.58H37.7775V49.88H40.2375V41.5H41.7375V50.7H44.2375ZM34.0175 37.84V37.54H36.9375V35.4H34.0175V32.9H31.5175V35.4H28.5775V37.54H31.5175V37.84C31.5175 40.68 30.5775 43.72 27.9575 45.22L29.4375 47.2C31.1175 46.26 32.1775 44.64 32.7975 42.72C33.4575 44.48 34.4775 45.92 36.1575 46.78L37.5575 44.82C34.9575 43.44 34.0175 40.62 34.0175 37.84ZM59.3359 43.46H61.9959V32.3H59.3359V43.46ZM58.0559 42.16L57.8159 40.12C55.5159 40.44 53.5159 40.56 50.3159 40.56V39.12H56.0159V37.08H50.3159V35.66H56.5559V33.58H47.6959V42.64H49.2759C53.1759 42.64 55.4359 42.58 58.0559 42.16ZM55.7759 43.72C51.8559 43.72 49.4959 45.04 49.4959 47.22C49.4959 49.48 51.8559 50.74 55.7759 50.74C59.6759 50.74 62.0759 49.48 62.0759 47.22C62.0759 45.04 59.6759 43.72 55.7759 43.72ZM55.7759 48.7C53.3359 48.7 52.1159 48.2 52.1159 47.22C52.1159 46.24 53.3359 45.74 55.7759 45.74C58.2159 45.74 59.4359 46.24 59.4359 47.22C59.4359 48.2 58.2159 48.7 55.7759 48.7ZM86.5656 38.76V36.58H84.1256V32.32H81.4856V43.2H84.1256V38.76H86.5656ZM79.1056 42.5L80.4856 40.46C77.5856 39.54 76.3456 37.4 76.3456 35.18V33.3H73.6656V34.96C73.6656 37.46 72.4456 39.92 69.3456 40.94L70.7256 43.02C72.8256 42.3 74.2456 40.9 75.0456 39.06C75.8256 40.66 77.1656 41.86 79.1056 42.5ZM78.1056 43.62C74.2456 43.62 71.8656 44.94 71.8656 47.16C71.8656 49.4 74.2456 50.72 78.1056 50.72C81.9456 50.72 84.3256 49.4 84.3256 47.16C84.3256 44.94 81.9456 43.62 78.1056 43.62ZM78.1056 48.68C75.6856 48.68 74.4856 48.18 74.4856 47.16C74.4856 46.16 75.6856 45.66 78.1056 45.66C80.4456 45.66 81.7056 46.14 81.7056 47.16C81.7056 48.2 80.4456 48.68 78.1056 48.68ZM102.524 38.58H104.964V36.44H102.524V32.28H99.8841V42.62H102.524V38.58ZM98.7041 41.4L98.4441 39.32C96.4641 39.74 94.6241 39.88 91.3441 39.88V35.54H96.9241V33.42H88.7241V42H90.2641C94.3641 42 96.4641 41.88 98.7041 41.4ZM102.524 43.42H90.5441V50.5H102.524V43.42ZM99.9441 48.44H93.1441V45.5H99.9441V48.44Z" fill="white"/>
<path fill-rule="evenodd" clip-rule="evenodd" d="M156 3.58611C160.851 0.78879 173.008 -2.91088 184.803 3.72384C186.365 4.66053 188.738 7.00227 185.74 8.87567C184.615 9.57876 184.166 9.85965 184.202 10.0479C184.285 10.4867 187.006 10.4225 189.955 14.0275C194.17 19.1794 199.791 33.6982 197.449 44.0019C195.927 50.6983 195.196 48.2951 194.357 45.5345C193.905 44.0473 193.421 42.4565 192.765 42.1285C192.129 41.8102 192.195 42.8441 192.322 44.8076C192.567 48.6216 193.038 55.943 189.019 63.6726C182.93 75.3814 176.373 77.7231 176.373 73.0396C176.373 70.2112 175.69 71.4823 174.633 73.4487C173.94 74.7384 173.086 76.3272 172.158 77.2548C169.86 79.5529 164.404 85.0084 156.234 85.6536V85.6851C156.156 85.6807 156.078 85.6759 156 85.6707C155.922 85.6759 155.844 85.6807 155.766 85.6851V85.6536C147.596 85.0084 142.14 79.5529 139.842 77.2548C138.914 76.3272 138.06 74.7384 137.367 73.4487C136.31 71.4823 135.627 70.2112 135.627 73.0396C135.627 77.7231 129.07 75.3814 122.981 63.6726C118.962 55.943 119.433 48.6216 119.678 44.8076C119.805 42.8441 119.871 41.8102 119.235 42.1285C118.579 42.4565 118.095 44.0473 117.643 45.5345C116.804 48.2951 116.073 50.6983 114.551 44.0019C112.209 33.6982 117.83 19.1794 122.045 14.0275C124.994 10.4225 127.715 10.4868 127.798 10.0479C127.834 9.85966 127.385 9.57877 126.26 8.87568C123.262 7.00228 125.635 4.66055 127.196 3.72386C138.992 -2.91086 151.149 0.788791 156 3.58611Z" fill="#FF872D"/>
<path fill-rule="evenodd" clip-rule="evenodd" d="M156 19.0288C151.812 16.3893 142.345 12.9289 136.095 19.1791C128.169 27.1055 121.171 63.8106 155.766 64.1385V64.1407C155.844 64.1407 155.923 64.1405 156.001 64.1401C156.078 64.1405 156.156 64.1407 156.234 64.1407V64.1385C190.829 63.8107 183.831 27.1055 175.905 19.1791C169.655 12.9289 160.188 16.3893 156 19.0288Z" fill="#FAD17B"/>
<circle cx="149.126" cy="31.3798" r="2.34175" fill="#482B14"/>
<circle cx="162.24" cy="31.3798" r="2.34175" fill="#482B14"/>
<path fill-rule="evenodd" clip-rule="evenodd" d="M155.7 37.4779C158.301 37.3899 162.744 37.8363 162.744 40.3095C162.744 43.588 157.592 45.4614 155.718 45.4614C155.713 45.4614 155.707 45.4613 155.701 45.4612C155.695 45.4613 155.689 45.4614 155.683 45.4614C153.81 45.4614 148.658 43.588 148.658 40.3096C148.658 37.8366 153.099 37.39 155.7 37.4779Z" fill="#985B2D"/>
<path d="M155.683 44.4932V49.1767" stroke="#985B2D" stroke-width="2" stroke-linecap="round"/>
<path d="M150.063 47.7715C150.844 48.5521 153.06 50.1132 155.683 50.1132C158.306 50.1132 160.523 48.5521 161.303 47.7715" stroke="#985B2D" stroke-width="2" stroke-linecap="round"/>
</svg>
