<svg width="118" height="118" viewBox="0 0 118 118" fill="none" xmlns="http://www.w3.org/2000/svg">
    <rect x="1" y="40" width="107" height="35" rx="17.5" fill="#5F5F5F"/>
    <path d="M26.1425 63.02V51.968H24.6425V56.204H23.7425V52.148H22.2665V62.528H23.7425V57.5H24.6425V63.02H26.1425ZM20.0105 55.304V55.124H21.7625V53.84H20.0105V52.34H18.5105V53.84H16.7465V55.124H18.5105V55.304C18.5105 57.008 17.9465 58.832 16.3745 59.732L17.2625 60.92C18.2705 60.356 18.9065 59.384 19.2785 58.232C19.6745 59.288 20.2865 60.152 21.2945 60.668L22.1345 59.492C20.5745 58.664 20.0105 56.972 20.0105 55.304ZM35.2016 58.676H36.7976V51.98H35.2016V58.676ZM34.4336 57.896L34.2896 56.672C32.9096 56.864 31.7096 56.936 29.7896 56.936V56.072H33.2096V54.848H29.7896V53.996H33.5336V52.748H28.2176V58.184H29.1656C31.5056 58.184 32.8616 58.148 34.4336 57.896ZM33.0656 58.832C30.7136 58.832 29.2976 59.624 29.2976 60.932C29.2976 62.288 30.7136 63.044 33.0656 63.044C35.4056 63.044 36.8456 62.288 36.8456 60.932C36.8456 59.624 35.4056 58.832 33.0656 58.832ZM33.0656 61.82C31.6016 61.82 30.8696 61.52 30.8696 60.932C30.8696 60.344 31.6016 60.044 33.0656 60.044C34.5296 60.044 35.2616 60.344 35.2616 60.932C35.2616 61.52 34.5296 61.82 33.0656 61.82ZM51.5394 55.856V54.548H50.0754V51.992H48.4914V58.52H50.0754V55.856H51.5394ZM47.0634 58.1L47.8914 56.876C46.1514 56.324 45.4074 55.04 45.4074 53.708V52.58H43.7994V53.576C43.7994 55.076 43.0674 56.552 41.2074 57.164L42.0354 58.412C43.2954 57.98 44.1474 57.14 44.6274 56.036C45.0954 56.996 45.8994 57.716 47.0634 58.1ZM46.4634 58.772C44.1474 58.772 42.7194 59.564 42.7194 60.896C42.7194 62.24 44.1474 63.032 46.4634 63.032C48.7674 63.032 50.1954 62.24 50.1954 60.896C50.1954 59.564 48.7674 58.772 46.4634 58.772ZM46.4634 61.808C45.0114 61.808 44.2914 61.508 44.2914 60.896C44.2914 60.296 45.0114 59.996 46.4634 59.996C47.8674 59.996 48.6234 60.284 48.6234 60.896C48.6234 61.52 47.8674 61.808 46.4634 61.808ZM61.1144 55.748H62.5784V54.464H61.1144V51.968H59.5304V58.172H61.1144V55.748ZM58.8224 57.44L58.6664 56.192C57.4784 56.444 56.3744 56.528 54.4064 56.528V53.924H57.7544V52.652H52.8344V57.8H53.7584C56.2184 57.8 57.4784 57.728 58.8224 57.44ZM61.1144 58.652H53.9264V62.9H61.1144V58.652ZM59.5664 61.664H55.4864V59.9H59.5664V61.664Z" fill="white"/>
    <path fill-rule="evenodd" clip-rule="evenodd" d="M92.5 36.0926C89.6704 34.4603 82.5784 32.3014 75.698 36.173C74.7873 36.7196 73.403 38.086 75.1515 39.1792C75.8078 39.5895 76.0699 39.7534 76.049 39.8633C76.0001 40.1194 74.4133 40.0819 72.6927 42.1855C70.2339 45.1918 66.9554 53.664 68.3215 59.6765C69.2092 63.5841 69.6354 62.1817 70.125 60.5708C70.3887 59.703 70.6709 58.7747 71.0535 58.5833C71.4249 58.3976 71.3861 59.0009 71.3124 60.1466C71.1692 62.3723 70.8945 66.6445 73.2391 71.155C76.7908 77.9875 80.6156 79.3539 80.6156 76.621C80.6156 74.9705 81.0142 75.7122 81.6308 76.8597C82.0352 77.6123 82.5334 78.5394 83.0745 79.0807C84.415 80.4217 87.5974 83.6051 92.3634 83.9816V84C92.4091 83.9975 92.4546 83.9947 92.5 83.9916C92.5454 83.9947 92.5909 83.9975 92.6366 84V83.9816C97.4026 83.6051 100.585 80.4217 101.926 79.0807C102.467 78.5394 102.965 77.6123 103.369 76.8597C103.986 75.7122 104.384 74.9705 104.384 76.621C104.384 79.3539 108.209 77.9875 111.761 71.155C114.106 66.6445 113.831 62.3723 113.688 60.1466C113.614 59.0009 113.575 58.3976 113.947 58.5833C114.329 58.7747 114.611 59.703 114.875 60.5708C115.365 62.1817 115.791 63.5841 116.679 59.6765C118.045 53.664 114.766 45.1918 112.307 42.1855C110.587 40.0819 109 40.1194 108.951 39.8633C108.93 39.7534 109.192 39.5895 109.848 39.1792C111.597 38.086 110.213 36.7196 109.302 36.173C102.422 32.3014 95.3296 34.4603 92.5 36.0926Z" fill="#FF872D"/>
    <path fill-rule="evenodd" clip-rule="evenodd" d="M92.5001 45.1042C90.0572 43.564 84.5348 41.5447 80.8888 45.1919C76.2651 49.8172 72.1829 71.2359 92.3634 71.4272V71.4285C92.4112 71.4285 92.4588 71.4284 92.5063 71.4282C92.5496 71.4284 92.593 71.4285 92.6366 71.4285V71.4272C112.817 71.2359 108.735 49.8173 104.111 45.192C100.465 41.5448 94.9429 43.564 92.5001 45.1042Z" fill="#FAD17B"/>
    <circle cx="88.4903" cy="52.3104" r="1.36602" fill="#482B14"/>
    <circle cx="96.1399" cy="52.3104" r="1.36602" fill="#482B14"/>
    <path fill-rule="evenodd" clip-rule="evenodd" d="M92.3255 55.8692C90.8081 55.8179 88.217 56.0784 88.217 57.5215C88.217 59.4346 91.2223 60.5278 92.3151 60.5278C92.3186 60.5278 92.322 60.5278 92.3255 60.5277C92.3289 60.5278 92.3323 60.5278 92.3358 60.5278C93.4286 60.5278 96.4339 59.4346 96.4339 57.5215C96.4339 56.0784 93.8428 55.8179 92.3255 55.8692Z" fill="#985B2D"/>
    <path fill-rule="evenodd" clip-rule="evenodd" d="M92.315 59.3789C92.6372 59.3789 92.8984 59.6402 92.8984 59.9624V62.6954C92.8984 63.0177 92.6372 63.2789 92.315 63.2789C91.9929 63.2789 91.7317 63.0177 91.7317 62.6954V59.9624C91.7317 59.6402 91.9929 59.3789 92.315 59.3789Z" fill="#985B2D"/>
    <path fill-rule="evenodd" clip-rule="evenodd" d="M88.6242 61.4633C88.852 61.2355 89.2214 61.2355 89.4492 61.4633C89.8398 61.854 90.9934 62.6585 92.3152 62.6585C93.6369 62.6585 94.7905 61.854 95.1811 61.4633C95.4089 61.2355 95.7783 61.2355 96.0061 61.4633C96.2339 61.6911 96.2339 62.0605 96.0061 62.2883C95.4861 62.8083 94.0533 63.8252 92.3152 63.8252C90.577 63.8252 89.1443 62.8083 88.6242 62.2883C88.3964 62.0605 88.3964 61.6911 88.6242 61.4633Z" fill="#985B2D"/>
</svg>
