<svg width="116" height="50" viewBox="0 0 116 50" fill="none" xmlns="http://www.w3.org/2000/svg">
<rect y="6" width="107" height="35" rx="17.5" fill="#5F5F5F"/>
<path d="M25.1425 29.02V17.968H23.6425V22.204H22.7425V18.148H21.2665V28.528H22.7425V23.5H23.6425V29.02H25.1425ZM19.0105 21.304V21.124H20.7625V19.84H19.0105V18.34H17.5105V19.84H15.7465V21.124H17.5105V21.304C17.5105 23.008 16.9465 24.832 15.3745 25.732L16.2625 26.92C17.2705 26.356 17.9065 25.384 18.2785 24.232C18.6745 25.288 19.2865 26.152 20.2945 26.668L21.1345 25.492C19.5745 24.664 19.0105 22.972 19.0105 21.304ZM34.2016 24.676H35.7976V17.98H34.2016V24.676ZM33.4336 23.896L33.2896 22.672C31.9096 22.864 30.7096 22.936 28.7896 22.936V22.072H32.2096V20.848H28.7896V19.996H32.5336V18.748H27.2176V24.184H28.1656C30.5056 24.184 31.8616 24.148 33.4336 23.896ZM32.0656 24.832C29.7136 24.832 28.2976 25.624 28.2976 26.932C28.2976 28.288 29.7136 29.044 32.0656 29.044C34.4056 29.044 35.8456 28.288 35.8456 26.932C35.8456 25.624 34.4056 24.832 32.0656 24.832ZM32.0656 27.82C30.6016 27.82 29.8696 27.52 29.8696 26.932C29.8696 26.344 30.6016 26.044 32.0656 26.044C33.5296 26.044 34.2616 26.344 34.2616 26.932C34.2616 27.52 33.5296 27.82 32.0656 27.82ZM50.5394 21.856V20.548H49.0754V17.992H47.4914V24.52H49.0754V21.856H50.5394ZM46.0634 24.1L46.8914 22.876C45.1514 22.324 44.4074 21.04 44.4074 19.708V18.58H42.7994V19.576C42.7994 21.076 42.0674 22.552 40.2074 23.164L41.0354 24.412C42.2954 23.98 43.1474 23.14 43.6274 22.036C44.0954 22.996 44.8994 23.716 46.0634 24.1ZM45.4634 24.772C43.1474 24.772 41.7194 25.564 41.7194 26.896C41.7194 28.24 43.1474 29.032 45.4634 29.032C47.7674 29.032 49.1954 28.24 49.1954 26.896C49.1954 25.564 47.7674 24.772 45.4634 24.772ZM45.4634 27.808C44.0114 27.808 43.2914 27.508 43.2914 26.896C43.2914 26.296 44.0114 25.996 45.4634 25.996C46.8674 25.996 47.6234 26.284 47.6234 26.896C47.6234 27.52 46.8674 27.808 45.4634 27.808ZM60.1144 21.748H61.5784V20.464H60.1144V17.968H58.5304V24.172H60.1144V21.748ZM57.8224 23.44L57.6664 22.192C56.4784 22.444 55.3744 22.528 53.4064 22.528V19.924H56.7544V18.652H51.8344V23.8H52.7584C55.2184 23.8 56.4784 23.728 57.8224 23.44ZM60.1144 24.652H52.9264V28.9H60.1144V24.652ZM58.5664 27.664H54.4864V25.9H58.5664V27.664Z" fill="white"/>
<path fill-rule="evenodd" clip-rule="evenodd" d="M91.5 2.09261C88.6704 0.460282 81.5784 -1.69859 74.698 2.17298C73.7873 2.71957 72.403 4.08605 74.1515 5.17924C74.8078 5.58952 75.0699 5.75343 75.049 5.8633C75.0001 6.11935 73.4133 6.08186 71.6927 8.18551C69.2339 11.1918 65.9554 19.664 67.3215 25.6765C68.2092 29.5841 68.6354 28.1817 69.125 26.5708C69.3887 25.703 69.6709 24.7747 70.0535 24.5833C70.4249 24.3976 70.3861 25.0009 70.3124 26.1466C70.1692 28.3723 69.8945 32.6445 72.2391 37.155C75.7908 43.9875 79.6156 45.3539 79.6156 42.621C79.6156 40.9705 80.0142 41.7122 80.6308 42.8597C81.0352 43.6123 81.5334 44.5394 82.0745 45.0807C83.415 46.4217 86.5974 49.6051 91.3634 49.9816V50C91.4091 49.9975 91.4546 49.9947 91.5 49.9916C91.5454 49.9947 91.5909 49.9975 91.6366 50V49.9816C96.4026 49.6051 99.585 46.4217 100.926 45.0807C101.467 44.5394 101.965 43.6123 102.369 42.8597C102.986 41.7122 103.384 40.9705 103.384 42.621C103.384 45.3539 107.209 43.9875 110.761 37.155C113.106 32.6445 112.831 28.3723 112.688 26.1466C112.614 25.0009 112.575 24.3976 112.947 24.5833C113.329 24.7747 113.611 25.703 113.875 26.5708C114.365 28.1817 114.791 29.5841 115.679 25.6765C117.045 19.664 113.766 11.1918 111.307 8.18551C109.587 6.08186 108 6.11935 107.951 5.8633C107.93 5.75343 108.192 5.58952 108.848 5.17924C110.597 4.08605 109.213 2.71957 108.302 2.17298C101.422 -1.69859 94.3296 0.460282 91.5 2.09261Z" fill="#FF872D"/>
<path fill-rule="evenodd" clip-rule="evenodd" d="M91.5 11.1052C89.0572 9.56501 83.5347 7.54569 79.8887 11.1929C75.265 15.8182 71.1828 37.2368 91.3634 37.4282V37.4295C91.4111 37.4295 91.4587 37.4294 91.5062 37.4291C91.5495 37.4293 91.593 37.4294 91.6365 37.4294V37.4282C111.817 37.2369 107.735 15.8182 103.111 11.1929C99.4652 7.5458 93.9429 9.56502 91.5 11.1052Z" fill="#FAD17B"/>
<circle cx="87.4903" cy="18.3094" r="1.36602" fill="#482B14"/>
<circle cx="95.1401" cy="18.3094" r="1.36602" fill="#482B14"/>
<path fill-rule="evenodd" clip-rule="evenodd" d="M91.3255 21.8692C89.8081 21.8179 87.2171 22.0784 87.2171 23.5215C87.2171 25.4346 90.2223 26.5278 91.3151 26.5278C91.3186 26.5278 91.322 26.5278 91.3255 26.5277C91.3289 26.5278 91.3324 26.5278 91.3358 26.5278C92.4286 26.5278 95.4339 25.4346 95.4339 23.5215C95.4339 22.0784 92.8428 21.8179 91.3255 21.8692Z" fill="#985B2D"/>
<path fill-rule="evenodd" clip-rule="evenodd" d="M91.3151 25.3789C91.6373 25.3789 91.8984 25.6402 91.8984 25.9624V28.6954C91.8984 29.0177 91.6373 29.2789 91.3151 29.2789C90.9929 29.2789 90.7318 29.0177 90.7318 28.6954V25.9624C90.7318 25.6402 90.9929 25.3789 91.3151 25.3789Z" fill="#985B2D"/>
<path fill-rule="evenodd" clip-rule="evenodd" d="M87.6242 27.4638C87.852 27.236 88.2214 27.236 88.4492 27.4638C88.8398 27.8545 89.9934 28.659 91.3152 28.659C92.6369 28.659 93.7905 27.8545 94.1811 27.4638C94.4089 27.236 94.7783 27.236 95.0061 27.4638C95.2339 27.6916 95.2339 28.061 95.0061 28.2888C94.4861 28.8088 93.0533 29.8257 91.3152 29.8257C89.577 29.8257 88.1443 28.8088 87.6242 28.2888C87.3964 28.061 87.3964 27.6916 87.6242 27.4638Z" fill="#985B2D"/>
</svg>
