<svg width="56" height="62" viewBox="0 0 56 62" fill="none" xmlns="http://www.w3.org/2000/svg">
<rect x="24" y="27" width="8" height="35" fill="#AAAAAA"/>
<path d="M22.8341 2.97774C25.1301 -0.992578 30.8699 -0.992581 33.1659 2.97774L55.1919 41.0668C57.4879 45.0371 54.618 50 50.0261 50H5.97395C1.38205 50 -1.48788 45.0371 0.808063 41.0668L22.8341 2.97774Z" fill="#FFC700"/>
<path fill-rule="evenodd" clip-rule="evenodd" d="M51.595 41.9364L30.501 5.45913C29.353 3.47398 26.483 3.47398 25.3351 5.45914L4.24105 41.9364C3.09308 43.9216 4.52804 46.403 6.82399 46.403H49.012C51.308 46.403 52.7429 43.9216 51.595 41.9364ZM32.2229 4.46655C30.3096 1.15796 25.5264 1.15796 23.6131 4.46656L2.51909 40.9439C0.6058 44.2525 2.99741 48.3882 6.82399 48.3882H49.012C52.8386 48.3882 55.2302 44.2525 53.3169 40.9439L32.2229 4.46655Z" fill="#FFF7D9"/>
<path d="M25.9531 32.005C26.0097 33.0942 26.9093 33.9483 28 33.9483V33.9483C29.0907 33.9483 29.9903 33.0942 30.0469 32.005L30.7973 17.5672L30.8908 14.998C30.9505 13.3602 29.6389 12 28 12V12C26.3611 12 25.0495 13.3602 25.1092 14.998L25.2027 17.5672L25.9531 32.005ZM25.0811 40.1563C25.0811 41.7268 26.3542 43 27.9248 43H28.1563C29.7268 43 31 41.7268 31 40.1563V40.1563C31 38.5858 29.7268 37.3127 28.1563 37.3127H27.9248C26.3542 37.3127 25.0811 38.5858 25.0811 40.1563V40.1563Z" fill="#FFF7D9"/>
</svg>
