<svg width="310" height="32" viewBox="0 0 310 32" fill="none" xmlns="http://www.w3.org/2000/svg">
<path d="M290.056 24.2682L287.62 22.1992L295.394 11.9911L298.854 14.9294L290.056 24.2682ZM284.167 25.1516C284.699 24.5232 285.24 24.231 285.79 24.2749C286.351 24.3051 286.878 24.5289 287.369 24.9462C287.847 25.3518 288.146 25.8293 288.267 26.3786C288.4 26.9143 288.2 27.4963 287.667 28.1246C287.158 28.7257 286.617 29.0179 286.044 29.0013C285.483 28.9711 284.963 28.7531 284.486 28.3474C283.994 27.9302 283.688 27.4469 283.567 26.8976C283.457 26.3346 283.657 25.7526 284.167 25.1516Z" fill="#FF872D"/>
<path d="M293.881 9.81844L286.937 22.2098L290.07 24.9142L301.065 16.0348L293.881 9.81844Z" fill="#FF872D"/>
<rect width="4.60367" height="1.66553" transform="matrix(-0.125041 0.992152 -0.992124 -0.12526 298.385 0.20874)" fill="#FFF7D9"/>
<rect width="4.6023" height="1.66603" transform="matrix(-0.619817 0.784746 -0.784209 -0.620496 303.639 7.15649)" fill="#FFF7D9"/>
<rect width="4.6001" height="1.66682" transform="matrix(-0.989284 0.146003 -0.145749 -0.989322 309.291 12.5852)" fill="#FFF7D9"/>
<ellipse cx="301.82" cy="2.31015" rx="1.0488" ry="1.04965" fill="#547AFF"/>
<ellipse cx="308.951" cy="15.7452" rx="1.0488" ry="1.04965" fill="#547AFF"/>
<ellipse cx="308.112" cy="7.34823" rx="1.0488" ry="1.04965" fill="#547AFF"/>
<path d="M291.962 13.226L299.093 17.6347L295.948 20.1539L290.913 15.1154L291.962 13.226Z" fill="#FFBA87"/>
<path d="M289.236 18.0549L293.64 22.043L292.592 22.8828L288.187 19.9436L289.236 18.0549Z" fill="#FFBA87"/>
<path d="M272.704 28.9704C271.151 28.9704 269.653 28.7807 268.208 28.4012C266.782 28.0036 265.618 27.4977 264.715 26.8833L266.475 22.9257C267.324 23.4679 268.299 23.9196 269.4 24.281C270.519 24.6244 271.63 24.7961 272.731 24.7961C273.471 24.7961 274.067 24.7328 274.519 24.6063C274.97 24.4618 275.295 24.281 275.494 24.0642C275.71 23.8293 275.819 23.5582 275.819 23.251C275.819 22.8173 275.62 22.474 275.223 22.221C274.826 21.968 274.311 21.7602 273.679 21.5975C273.047 21.4349 272.343 21.2723 271.567 21.1096C270.808 20.947 270.041 20.7392 269.265 20.4862C268.506 20.2332 267.811 19.9079 267.179 19.5103C266.547 19.0947 266.033 18.5616 265.636 17.9111C265.238 17.2424 265.04 16.4022 265.04 15.3902C265.04 14.2517 265.347 13.2217 265.961 12.3001C266.593 11.3785 267.531 10.6376 268.777 10.0774C270.023 9.51716 271.576 9.23706 273.435 9.23706C274.681 9.23706 275.9 9.38163 277.091 9.67076C278.301 9.94182 279.375 10.3484 280.314 10.8905L278.662 14.8752C277.759 14.3873 276.866 14.0258 275.981 13.7909C275.096 13.5379 274.239 13.4114 273.408 13.4114C272.668 13.4114 272.072 13.4927 271.621 13.6554C271.169 13.8 270.844 13.9987 270.646 14.2517C270.447 14.5047 270.348 14.7938 270.348 15.1191C270.348 15.5348 270.538 15.8691 270.917 16.1221C271.314 16.357 271.828 16.5558 272.46 16.7184C273.11 16.863 273.814 17.0166 274.573 17.1792C275.349 17.3418 276.116 17.5497 276.875 17.8026C277.651 18.0376 278.355 18.3628 278.987 18.7785C279.619 19.176 280.125 19.7091 280.504 20.3777C280.901 21.0283 281.1 21.8505 281.1 22.8444C281.1 23.9467 280.784 24.9677 280.152 25.9074C279.538 26.829 278.608 27.5699 277.362 28.1301C276.134 28.6903 274.582 28.9704 272.704 28.9704Z" fill="#FF872D"/>
<path d="M214.735 28.5503V9.57593H220.098V28.5503H214.735Z" fill="#FF872D"/>
<path d="M159.853 28.5503V9.57593H165.215V24.2946H174.26V28.5503H159.853Z" fill="#FF872D"/>
<path d="M148.79 28.9298C145.991 28.9298 143.807 28.1618 142.236 26.6258C140.665 25.0898 139.88 22.9122 139.88 20.0932V9.57593H145.242V19.9305C145.242 21.5569 145.558 22.7225 146.19 23.4272C146.84 24.132 147.724 24.4844 148.844 24.4844C149.963 24.4844 150.839 24.132 151.471 23.4272C152.103 22.7225 152.419 21.5569 152.419 19.9305V9.57593H157.7V20.0932C157.7 22.9122 156.914 25.0898 155.344 26.6258C153.773 28.1618 151.588 28.9298 148.79 28.9298Z" fill="#FF872D"/>
<path d="M126.745 28.5503V13.8316H120.922V9.57593H137.903V13.8316H132.107V28.5503H126.745Z" fill="#FF872D"/>
<path d="M201.261 28.5503V13.8316H195.439V9.57593H212.419V13.8316H206.624V28.5503H201.261Z" fill="#FF872D"/>
<path d="M101.084 28.5503L109.453 9.57593H114.734L123.129 28.5503H117.55L110.996 12.2052H113.109L106.555 28.5503H101.084ZM105.661 24.8639L107.042 20.9064H116.304L117.686 24.8639H105.661Z" fill="#FF872D"/>
<path d="M175.764 28.5503L184.132 9.57593H189.413L197.809 28.5503H192.23L185.676 12.2052H187.788L181.234 28.5503H175.764ZM180.341 24.8639L181.722 20.9064H190.984L192.365 24.8639H180.341Z" fill="#FF872D"/>
<path d="M82.2622 28.5503V9.57593H90.9285C92.6618 9.57593 94.1513 9.85603 95.3971 10.4162C96.6609 10.9764 97.6359 11.7896 98.3219 12.8558C99.008 13.9039 99.3511 15.1508 99.3511 16.5965C99.3511 18.0241 99.008 19.2619 98.3219 20.31C97.6359 21.3401 96.6609 22.1352 95.3971 22.6954C94.1513 23.2375 92.6618 23.5086 90.9285 23.5086H85.2412L87.6245 21.2587V28.5503H82.2622ZM93.9888 28.5503L89.2765 21.6382H94.9908L99.7302 28.5503H93.9888ZM87.6245 21.828L85.2412 19.3613H90.6035C91.7229 19.3613 92.5534 19.1173 93.0951 18.6294C93.6548 18.1415 93.9346 17.4639 93.9346 16.5965C93.9346 15.711 93.6548 15.0243 93.0951 14.5364C92.5534 14.0485 91.7229 13.8045 90.6035 13.8045H85.2412L87.6245 11.3378V21.828Z" fill="#FF872D"/>
<path d="M72.1061 28.9704C70.6075 28.9704 69.2173 28.7355 67.9354 28.2657C66.6535 27.7778 65.5432 27.0911 64.6043 26.2056C63.6835 25.3201 62.9613 24.281 62.4377 23.0884C61.9141 21.8776 61.6523 20.5494 61.6523 19.1037C61.6523 17.6581 61.9141 16.3389 62.4377 15.1462C62.9613 13.9355 63.6925 12.8874 64.6314 12.0019C65.5702 11.1164 66.6806 10.4388 67.9625 9.96893C69.2624 9.48102 70.6797 9.23706 72.2144 9.23706C74.0018 9.23706 75.5997 9.53523 77.0079 10.1316C78.4162 10.7279 79.5807 11.5863 80.5015 12.7067L77.0892 15.7968C76.4392 15.092 75.7351 14.568 74.9768 14.2246C74.2365 13.8632 73.406 13.6825 72.4852 13.6825C71.6728 13.6825 70.9325 13.809 70.2645 14.062C69.5965 14.315 69.0277 14.6854 68.5583 15.1733C68.0889 15.6432 67.7188 16.2124 67.4479 16.881C67.1952 17.5316 67.0688 18.2725 67.0688 19.1037C67.0688 19.8989 67.1952 20.6307 67.4479 21.2994C67.7188 21.968 68.0889 22.5462 68.5583 23.0342C69.0277 23.504 69.5874 23.8745 70.2374 24.1455C70.9054 24.3985 71.6366 24.525 72.4311 24.525C73.2255 24.525 74.0018 24.3985 74.7601 24.1455C75.5184 23.8745 76.2858 23.4227 77.0621 22.7902L80.0682 26.558C78.9849 27.335 77.7301 27.9314 76.3038 28.347C74.8775 28.7626 73.4782 28.9704 72.1061 28.9704ZM75.3288 25.8532V18.6972H80.0682V26.558L75.3288 25.8532Z" fill="#FF872D"/>
<path d="M41.6389 28.5503V9.57593H46.0533L56.507 22.2075H54.4217V9.57593H59.6757V28.5503H55.2613L44.8075 15.9188H46.8929V28.5503H41.6389Z" fill="#FF872D"/>
<path d="M245.324 28.5503V9.57593H249.738L260.192 22.2075H258.107V9.57593H263.36V28.5503H258.946L248.492 15.9188H250.578V28.5503H245.324Z" fill="#FF872D"/>
<path d="M29.4925 28.9704C27.9759 28.9704 26.5766 28.7265 25.2948 28.2386C24.0129 27.7507 22.8935 27.064 21.9366 26.1785C20.9977 25.2749 20.2665 24.2268 19.7429 23.0342C19.2193 21.8415 18.9575 20.5313 18.9575 19.1037C18.9575 17.6762 19.2193 16.366 19.7429 15.1733C20.2665 13.9807 20.9977 12.9416 21.9366 12.0561C22.8935 11.1526 24.0129 10.4568 25.2948 9.96893C26.5766 9.48102 27.9759 9.23706 29.4925 9.23706C31.0271 9.23706 32.4264 9.48102 33.6902 9.96893C34.9721 10.4568 36.0825 11.1526 37.0213 12.0561C37.9602 12.9416 38.6914 13.9807 39.215 15.1733C39.7566 16.366 40.0275 17.6762 40.0275 19.1037C40.0275 20.5313 39.7566 21.8505 39.215 23.0613C38.6914 24.2539 37.9602 25.293 37.0213 26.1785C36.0825 27.064 34.9721 27.7507 33.6902 28.2386C32.4264 28.7265 31.0271 28.9704 29.4925 28.9704ZM29.4925 24.525C30.2147 24.525 30.8827 24.3985 31.4966 24.1455C32.1285 23.8925 32.6701 23.5311 33.1215 23.0613C33.5909 22.5734 33.952 21.9951 34.2048 21.3265C34.4756 20.6578 34.611 19.9169 34.611 19.1037C34.611 18.2725 34.4756 17.5316 34.2048 16.881C33.952 16.2124 33.5909 15.6432 33.1215 15.1733C32.6701 14.6854 32.1285 14.315 31.4966 14.062C30.8827 13.809 30.2147 13.6825 29.4925 13.6825C28.7703 13.6825 28.0932 13.809 27.4613 14.062C26.8475 14.315 26.3058 14.6854 25.8364 15.1733C25.385 15.6432 25.0239 16.2124 24.7531 16.881C24.5003 17.5316 24.374 18.2725 24.374 19.1037C24.374 19.9169 24.5003 20.6578 24.7531 21.3265C25.0239 21.9951 25.385 22.5734 25.8364 23.0613C26.3058 23.5311 26.8475 23.8925 27.4613 24.1455C28.0932 24.3985 28.7703 24.525 29.4925 24.525Z" fill="#FF872D"/>
<path d="M232.947 28.9704C231.431 28.9704 230.031 28.7265 228.75 28.2386C227.468 27.7507 226.348 27.064 225.391 26.1785C224.453 25.2749 223.721 24.2268 223.198 23.0342C222.674 21.8415 222.412 20.5313 222.412 19.1037C222.412 17.6762 222.674 16.366 223.198 15.1733C223.721 13.9807 224.453 12.9416 225.391 12.0561C226.348 11.1526 227.468 10.4568 228.75 9.96893C230.031 9.48102 231.431 9.23706 232.947 9.23706C234.482 9.23706 235.881 9.48102 237.145 9.96893C238.427 10.4568 239.537 11.1526 240.476 12.0561C241.415 12.9416 242.146 13.9807 242.67 15.1733C243.211 16.366 243.482 17.6762 243.482 19.1037C243.482 20.5313 243.211 21.8505 242.67 23.0613C242.146 24.2539 241.415 25.293 240.476 26.1785C239.537 27.064 238.427 27.7507 237.145 28.2386C235.881 28.7265 234.482 28.9704 232.947 28.9704ZM232.947 24.525C233.67 24.525 234.338 24.3985 234.951 24.1455C235.583 23.8925 236.125 23.5311 236.576 23.0613C237.046 22.5734 237.407 21.9951 237.66 21.3265C237.93 20.6578 238.066 19.9169 238.066 19.1037C238.066 18.2725 237.93 17.5316 237.66 16.881C237.407 16.2124 237.046 15.6432 236.576 15.1733C236.125 14.6854 235.583 14.315 234.951 14.062C234.338 13.809 233.67 13.6825 232.947 13.6825C232.225 13.6825 231.548 13.809 230.916 14.062C230.302 14.315 229.761 14.6854 229.291 15.1733C228.84 15.6432 228.479 16.2124 228.208 16.881C227.955 17.5316 227.829 18.2725 227.829 19.1037C227.829 19.9169 227.955 20.6578 228.208 21.3265C228.479 21.9951 228.84 22.5734 229.291 23.0613C229.761 23.5311 230.302 23.8925 230.916 24.1455C231.548 24.3985 232.225 24.525 232.947 24.525Z" fill="#FF872D"/>
<path d="M10.4266 28.9704C8.92809 28.9704 7.53787 28.7355 6.25598 28.2657C4.99215 27.7778 3.89081 27.0911 2.95196 26.2056C2.03116 25.3201 1.30897 24.281 0.785383 23.0884C0.261794 21.8776 0 20.5494 0 19.1037C0 17.6581 0.261794 16.3389 0.785383 15.1462C1.30897 13.9355 2.03116 12.8874 2.95196 12.0019C3.89081 11.1164 4.99215 10.4388 6.25598 9.96893C7.53787 9.48102 8.92809 9.23706 10.4266 9.23706C12.178 9.23706 13.7397 9.54427 15.1119 10.1587C16.5021 10.7731 17.6576 11.6586 18.5784 12.8151L15.166 15.9052C14.5522 15.1824 13.8751 14.6312 13.1349 14.2517C12.4127 13.8722 11.6002 13.6825 10.6975 13.6825C9.9211 13.6825 9.20794 13.809 8.55797 14.062C7.908 14.315 7.3483 14.6854 6.87887 15.1733C6.4275 15.6432 6.06641 16.2124 5.79559 16.881C5.54282 17.5497 5.41644 18.2906 5.41644 19.1037C5.41644 19.9169 5.54282 20.6578 5.79559 21.3265C6.06641 21.9951 6.4275 22.5734 6.87887 23.0613C7.3483 23.5311 7.908 23.8925 8.55797 24.1455C9.20794 24.3985 9.9211 24.525 10.6975 24.525C11.6002 24.525 12.4127 24.3353 13.1349 23.9558C13.8751 23.5763 14.5522 23.0251 15.166 22.3023L18.5784 25.3924C17.6576 26.5309 16.5021 27.4163 15.1119 28.0488C13.7397 28.6632 12.178 28.9704 10.4266 28.9704Z" fill="#FF872D"/>
</svg>
