<svg width="24" height="50" viewBox="0 0 24 50" fill="none" xmlns="http://www.w3.org/2000/svg">
<rect x="10.1055" y="21.2507" width="3.78947" height="6.875" fill="#60656D"/>
<ellipse cx="12" cy="11.875" rx="12" ry="11.875" fill="#FF6868"/>
<ellipse cx="12.0001" cy="11.8757" rx="9.47368" ry="9.375" fill="#1C1B1A"/>
<path d="M8.21094 30.6645C8.21094 28.5716 9.90754 26.875 12.0004 26.875C14.0933 26.875 15.7899 28.5716 15.7899 30.6645V50H8.21094V30.6645Z" fill="#547AFF"/>
<path d="M8.21094 30.625C8.21094 28.5539 9.88987 26.875 11.9609 26.875H12.0399C14.111 26.875 15.7899 28.5539 15.7899 30.625H8.21094Z" fill="#B0D0FF"/>
<circle cx="12" cy="12" r="11.25" stroke="#FF6868" stroke-width="1.5"/>
<path d="M10.9748 14.1486C11.0041 14.6934 11.4544 15.1202 12 15.1202C12.5456 15.1202 12.9959 14.6934 13.0252 14.1486L13.3986 7.1938L13.4436 5.99894C13.4744 5.18037 12.8191 4.5 12 4.5C11.1809 4.5 10.5256 5.18037 10.5564 5.99894L10.6014 7.1938L10.9748 14.1486ZM10.5405 18.124C10.5405 18.884 11.1566 19.5 11.9165 19.5H12.124C12.884 19.5 13.5 18.884 13.5 18.124C13.5 17.3641 12.884 16.7481 12.124 16.7481H11.9165C11.1566 16.7481 10.5405 17.3641 10.5405 18.124Z" fill="#FF6868"/>
</svg>
