<svg width="56" height="56" viewBox="0 0 56 56" fill="none" xmlns="http://www.w3.org/2000/svg">
<circle cx="28" cy="28" r="28" fill="#2F2F2F"/>
<g clip-path="url(#clip0_16_310)">
<path fill-rule="evenodd" clip-rule="evenodd" d="M28.0216 11C23.9808 10.9959 20.0705 12.4831 16.9916 15.0818C13.9127 17.6805 11.8664 21.2831 11.2194 25.2439C10.5724 29.2046 11.367 33.2648 13.4609 36.6966C15.5547 40.1285 18.8108 42.7078 22.6458 43.9722C23.4913 44.1277 23.8045 43.5991 23.8045 43.1534C23.8045 42.7077 23.8045 41.6919 23.8045 40.2822C19.0758 41.3187 18.0737 38.0225 18.0737 38.0225C17.7587 37.0009 17.0893 36.1232 16.1844 35.5452C14.6499 34.5087 16.3096 34.5087 16.3096 34.5087C16.8475 34.5841 17.3611 34.7801 17.8114 35.0818C18.2617 35.3835 18.637 35.783 18.9088 36.2501C19.1398 36.6659 19.4512 37.0324 19.8251 37.3284C20.199 37.6245 20.6282 37.8443 21.0879 37.9753C21.5476 38.1063 22.0288 38.1458 22.504 38.0917C22.9791 38.0375 23.4388 37.8907 23.8566 37.6597C23.9222 36.807 24.2924 36.0056 24.9005 35.4001C21.1218 34.9751 17.1551 33.524 17.1551 27.056C17.1292 25.3799 17.7534 23.758 18.8984 22.5263C18.3874 21.0691 18.447 19.4744 19.0654 18.0588C19.0654 18.0588 20.4955 17.6027 23.7418 19.7898C26.5295 19.0298 29.4719 19.0298 32.2596 19.7898C35.506 17.6027 36.9256 18.0588 36.9256 18.0588C37.5505 19.4724 37.6139 21.0683 37.1031 22.5263C38.2481 23.758 38.8722 25.3799 38.8463 27.056C38.8463 33.5447 34.8692 34.9647 31.0801 35.3483C31.4864 35.7538 31.8001 36.2414 32 36.7779C32.1999 37.3144 32.2814 37.8874 32.2387 38.4579C32.2387 40.7175 32.2387 42.5418 32.2387 43.0912C32.2387 43.6406 32.5415 44.0655 33.4079 43.9101C37.2308 42.6337 40.4727 40.0503 42.5556 36.6207C44.6384 33.1911 45.4266 29.1383 44.7796 25.1852C44.1326 21.2321 42.0925 17.6358 39.0231 15.0376C35.9538 12.4395 32.0548 11.0086 28.0216 11Z" fill="#AAAAAA"/>
</g>
<defs>
<clipPath id="clip0_16_310">
<rect width="34" height="33" fill="white" transform="translate(11 11)"/>
</clipPath>
</defs>
</svg>
