<svg width="200" height="150" viewBox="0 0 200 150" fill="none" xmlns="http://www.w3.org/2000/svg">
<rect width="200" height="150" rx="12" fill="white"/>
<path d="M0 12C0 5.37258 5.37258 0 12 0H188C194.627 0 200 5.37258 200 12V26H0V12Z" fill="#AAAAAA"/>
<circle cx="15" cy="13" r="4" fill="#FF847C"/>
<circle cx="29" cy="13" r="4" fill="#FAD17B"/>
<circle cx="43" cy="13" r="4" fill="#97E17E"/>
<path fill-rule="evenodd" clip-rule="evenodd" d="M108.529 60.1493C108.783 60.9134 109.386 61.5057 110.139 61.7897C110.979 62.1063 111.801 62.4594 112.603 62.847C113.349 63.2077 114.222 63.2272 114.963 62.8556L124.87 57.8861C125.849 57.3949 127.033 57.5863 127.808 58.361L131.639 62.1922C132.414 62.9669 132.605 64.1507 132.114 65.13L127.002 75.322C126.642 76.04 126.648 76.883 126.978 77.6153C127.271 78.2663 127.541 78.9296 127.789 79.6042C128.069 80.3686 128.665 80.9819 129.437 81.2384L140.258 84.83C141.298 85.1751 142 86.1475 142 87.2431V92.6613C142 93.7569 141.298 94.7293 140.258 95.0744L129.437 98.6661C128.665 98.9225 128.069 99.5359 127.789 100.3C127.536 100.991 127.258 101.669 126.957 102.335C126.626 103.068 126.618 103.913 126.979 104.633L132.114 114.87C132.605 115.849 132.414 117.033 131.639 117.808L127.808 121.639C127.033 122.414 125.849 122.605 124.87 122.114L114.866 117.096C114.128 116.726 113.259 116.743 112.514 117.1C111.751 117.466 110.97 117.801 110.172 118.102C109.42 118.387 108.818 118.978 108.565 119.742L105.074 130.258C104.729 131.298 103.757 132 102.661 132H97.2431C96.1475 132 95.1751 131.298 94.83 130.258L91.4539 120.087C91.1913 119.296 90.5548 118.69 89.7661 118.42C88.8182 118.095 87.8917 117.724 86.9892 117.31C86.2529 116.972 85.4019 116.962 84.6777 117.325L75.13 122.114C74.1507 122.605 72.9669 122.414 72.1922 121.639L68.3609 117.808C67.5862 117.033 67.3949 115.849 67.8861 114.87L72.5361 105.6C72.9108 104.853 72.8877 103.972 72.5186 103.222C72.002 102.173 71.5447 101.089 71.1512 99.9748C70.8765 99.1969 70.2752 98.5707 69.4922 98.3108L59.7416 95.0744C58.7018 94.7293 58 93.7569 58 92.6613V87.2431C58 86.1475 58.7018 85.1751 59.7416 84.83L69.4922 81.5937C70.2752 81.3338 70.8765 80.7076 71.1512 79.9297C71.5392 78.8312 71.9892 77.762 72.4969 76.7262C72.8641 75.9772 72.8864 75.0987 72.5124 74.3531L67.8861 65.13C67.3949 64.1507 67.5862 62.9669 68.3609 62.1922L72.1922 58.3609C72.9669 57.5863 74.1507 57.3949 75.13 57.8861L84.5786 62.6255C85.3056 62.9902 86.1602 62.9785 86.8983 62.6367C87.8398 62.2006 88.8077 61.8118 89.7989 61.4732C90.589 61.2034 91.2267 60.5977 91.4897 59.8053L94.83 49.7416C95.1751 48.7018 96.1475 48 97.2431 48H102.661C103.757 48 104.729 48.7018 105.074 49.7416L108.529 60.1493ZM99.5284 105.631C108.422 105.631 115.631 98.4218 115.631 89.5285C115.631 80.6351 108.422 73.4256 99.5284 73.4256C90.6351 73.4256 83.4256 80.6351 83.4256 89.5285C83.4256 98.4218 90.6351 105.631 99.5284 105.631Z" fill="#547AFF"/>
</svg>
