<svg width="24" height="50" viewBox="0 0 24 50" fill="none" xmlns="http://www.w3.org/2000/svg">
<rect x="10.1055" y="21.2507" width="3.78947" height="6.875" fill="#515151"/>
<ellipse cx="12" cy="11.875" rx="12" ry="11.875" fill="#7D7D7D"/>
<ellipse cx="12.0001" cy="11.8757" rx="9.47368" ry="9.375" fill="#AAAAAA"/>
<path d="M8.21094 30.6645C8.21094 28.5716 9.90754 26.875 12.0004 26.875C14.0933 26.875 15.7899 28.5716 15.7899 30.6645V50H8.21094V30.6645Z" fill="#5F5F5F"/>
<path d="M8.21094 30.625C8.21094 28.5539 9.88987 26.875 11.9609 26.875H12.0399C14.111 26.875 15.7899 28.5539 15.7899 30.625H8.21094Z" fill="#AAAAAA"/>
<path fill-rule="evenodd" clip-rule="evenodd" d="M13.9188 4.82846C13.8229 5.16036 14.0171 5.50629 14.3525 5.60111C15.0842 5.80798 16.8984 6.79055 17.7241 8.96961C17.8466 9.29281 18.2107 9.45657 18.5373 9.33537C18.8639 9.21417 19.0294 8.85391 18.9069 8.53071C17.9137 5.90977 15.7363 4.69234 14.6996 4.39921C14.3642 4.30438 14.0146 4.49656 13.9188 4.82846Z" fill="#D6D6D6"/>
<ellipse cx="18.947" cy="10.624" rx="0.631579" ry="0.625" fill="#D6D6D6"/>
</svg>
