<svg width="80" height="16" viewBox="0 0 80 16" fill="none" xmlns="http://www.w3.org/2000/svg">
<path d="M21.7525 11.1995V14.7585H11.0371V6.00539L3 1.00464H12.4663V11.1995H21.7525Z" fill="#FF872D"/>
<path fill-rule="evenodd" clip-rule="evenodd" d="M21.7525 6.00539L29.7896 1.00464H21.7525V6.00539Z" fill="white"/>
<path d="M35.0456 14.764V1H37.6923L43.5783 10.7135H42.1759L47.9632 1H50.5902L50.6297 14.764H47.6274L47.6076 5.58146H48.1607L43.5388 13.309H42.0969L37.3763 5.58146H38.0478V14.764H35.0456Z" fill="white"/>
<path d="M56.4579 15C55.523 15 54.6605 14.8296 53.8705 14.4888C53.0936 14.1348 52.4549 13.6367 51.9546 12.9944L53.7322 10.8708C54.1141 11.3689 54.5157 11.7491 54.9371 12.0112C55.3584 12.2603 55.8127 12.3848 56.2999 12.3848C57.6035 12.3848 58.2553 11.6245 58.2553 10.1039V3.55618H53.3964V1H61.4354V9.92697C61.4354 11.6311 61.014 12.9026 60.1713 13.7416C59.3285 14.5805 58.0907 15 56.4579 15Z" fill="white"/>
<path d="M70.7387 15C68.7767 15 67.2427 14.456 66.1366 13.368C65.0305 12.28 64.4774 10.7266 64.4774 8.70787V1H67.6772V8.58989C67.6772 9.90075 67.9471 10.8446 68.487 11.4213C69.0269 11.9981 69.784 12.2865 70.7584 12.2865C71.7329 12.2865 72.49 11.9981 73.0299 11.4213C73.5698 10.8446 73.8397 9.90075 73.8397 8.58989V1H77V8.70787C77 10.7266 76.4469 12.28 75.3408 13.368C74.2347 14.456 72.7007 15 70.7387 15Z" fill="white"/>
</svg>
