<svg class="insta" width="56" height="56" viewBox="0 0 56 56" fill="none" xmlns="http://www.w3.org/2000/svg">
<circle class="instaCircle" cx="28" cy="28" r="28" fill="#2F2F2F"/>
<g clip-path="url(#clip0_16_309)">
<path d="M35.186 11H20.8164C18.213 11 15.7161 12.0342 13.8752 13.875C12.0342 15.7158 11 18.2125 11 20.8157V35.1891C11.0003 36.4778 11.2545 37.7538 11.748 38.9443C12.2415 40.1348 12.9646 41.2164 13.8762 42.1274C14.7877 43.0385 15.8698 43.7611 17.0606 44.2539C18.2514 44.7468 19.5276 45.0003 20.8164 45H35.186C37.7888 45 40.285 43.9661 42.1255 42.1257C43.966 40.2854 45 37.7893 45 35.1867V20.8157C45.0003 19.5268 44.7467 18.2505 44.2536 17.0596C43.7606 15.8687 43.0377 14.7866 42.1264 13.8751C41.215 12.9636 40.133 12.2405 38.9422 11.7472C37.7513 11.2539 36.475 11 35.186 11V11ZM41.8747 35.4419C41.8741 37.1695 41.1874 38.8263 39.9657 40.0479C38.744 41.2696 37.0871 41.9562 35.3593 41.9568H20.6479C18.9201 41.9562 17.2633 41.2696 16.0415 40.0479C14.8198 38.8263 14.1331 37.1695 14.1325 35.4419V20.7315C14.1331 19.0038 14.8198 17.3471 16.0415 16.1254C17.2633 14.9038 18.9201 14.2172 20.6479 14.2165H35.3593C37.0871 14.2172 38.744 14.9038 39.9657 16.1254C41.1874 17.3471 41.8741 19.0038 41.8747 20.7315V35.4419Z" fill="#AAAAAA"/>
<path d="M28 19C26.22 19 24.4799 19.5278 22.9999 20.5168C21.5198 21.5057 20.3663 22.9113 19.6851 24.5558C19.0039 26.2004 18.8257 28.01 19.1729 29.7558C19.5202 31.5016 20.3774 33.1053 21.636 34.364C22.8947 35.6226 24.4984 36.4798 26.2442 36.8271C27.99 37.1743 29.7996 36.9961 31.4442 36.3149C33.0887 35.6337 34.4943 34.4802 35.4832 33.0001C36.4722 31.5201 37 29.78 37 28C37 25.613 36.0518 23.3239 34.364 21.636C32.6761 19.9482 30.3869 19 28 19ZM28 33.8338C26.8455 33.8343 25.7168 33.4923 24.7566 32.8512C23.7965 32.2101 23.0481 31.2986 22.606 30.2321C22.164 29.1656 22.0482 27.9919 22.2733 26.8595C22.4984 25.7272 23.0543 24.6871 23.8707 23.8707C24.6871 23.0543 25.7272 22.4984 26.8596 22.2733C27.9919 22.0482 29.1656 22.164 30.2321 22.606C31.2986 23.0481 32.2101 23.7965 32.8512 24.7566C33.4923 25.7168 33.8343 26.8455 33.8338 28C33.8338 29.5472 33.2192 31.0311 32.1251 32.1251C31.0311 33.2192 29.5472 33.8338 28 33.8338Z" fill="#AAAAAA"/>
<path d="M37 21C38.1046 21 39 20.1046 39 19C39 17.8954 38.1046 17 37 17C35.8954 17 35 17.8954 35 19C35 20.1046 35.8954 21 37 21Z" fill="#AAAAAA"/>
</g>
<defs>
<clipPath id="clip0_16_309">
<rect width="34" height="34" fill="white" transform="translate(11 11)"/>
</clipPath>
</defs>
<style>
.insta{
  cursor:pointer;
}
.insta:hover .instaCircle{
  fill:#525252;
}
</style>
</svg>
