<svg width="98" height="16" viewBox="0 0 98 16" fill="none" xmlns="http://www.w3.org/2000/svg">
<path d="M30.673 11.1995V14.7585H20.0031V6.00539L12 1.00464H21.4262V11.1995H30.673Z" fill="#FF872D"/>
<path fill-rule="evenodd" clip-rule="evenodd" d="M30.673 6.00539L38.6761 1.00464H30.673V6.00539Z" fill="white"/>
<path d="M43.9098 14.764V1H46.5453L52.4063 10.7135H51.0099L56.7726 1H59.3885L59.4278 14.764H56.4383L56.4186 5.58146H56.9693L52.367 13.309H50.9312L46.2306 5.58146H46.8993V14.764H43.9098Z" fill="white"/>
<path d="M65.2314 15C64.3004 15 63.4416 14.8296 62.6549 14.4888C61.8813 14.1348 61.2453 13.6367 60.7471 12.9944L62.5172 10.8708C62.8974 11.3689 63.2974 11.7491 63.7169 12.0112C64.1365 12.2603 64.5889 12.3848 65.074 12.3848C66.3721 12.3848 67.0211 11.6245 67.0211 10.1039V3.55618H62.1828V1H70.1877V9.92697C70.1877 11.6311 69.7681 12.9026 68.9289 13.7416C68.0898 14.5805 66.8573 15 65.2314 15Z" fill="white"/>
<path d="M79.4516 15C77.4979 15 75.9704 14.456 74.869 13.368C73.7676 12.28 73.2169 10.7266 73.2169 8.70787V1H76.4031V8.58989C76.4031 9.90075 76.6719 10.8446 77.2095 11.4213C77.7471 11.9981 78.501 12.2865 79.4713 12.2865C80.4415 12.2865 81.1955 11.9981 81.7331 11.4213C82.2707 10.8446 82.5395 9.90075 82.5395 8.58989V1H85.6863V8.70787C85.6863 10.7266 85.1356 12.28 84.0342 13.368C82.9328 14.456 81.4053 15 79.4516 15Z" fill="white"/>
</svg>
