<svg class="medi" width="56" height="56" viewBox="0 0 56 56" fill="none" xmlns="http://www.w3.org/2000/svg">
<circle class="mediCircle" cx="28" cy="28" r="28" fill="#2F2F2F"/>
<path d="M30.178 27.655C30.178 32.9871 25.8848 37.3097 20.5892 37.3097C15.2935 37.3097 11 32.9871 11 27.655C11 22.3229 15.2932 18 20.5892 18C25.8852 18 30.178 22.3229 30.178 27.655Z" fill="#AAAAAA"/>
<path d="M40.6972 27.6549C40.6972 32.6739 38.5506 36.7443 35.9026 36.7443C33.2546 36.7443 31.108 32.6739 31.108 27.6549C31.108 22.6358 33.2543 18.5654 35.9023 18.5654C38.5503 18.5654 40.6969 22.6345 40.6969 27.6549" fill="#AAAAAA"/>
<path d="M45 27.6549C45 32.1508 44.2452 35.7976 43.3138 35.7976C42.3823 35.7976 41.6278 32.1517 41.6278 27.6549C41.6278 23.1581 42.3827 19.5122 43.3138 19.5122C44.2448 19.5122 45 23.1578 45 27.6549Z" fill="#AAAAAA"/>
<style>
.medi{
  cursor:pointer;
}
.medi:hover .mediCircle{
  fill:#525252;
}
</style>
</svg>
