<svg width="28" height="32" viewBox="0 0 28 32" fill="none" xmlns="http://www.w3.org/2000/svg">
<path d="M8.05638 24.2682L5.6202 22.1992L13.394 11.9911L16.8538 14.9294L8.05638 24.2682ZM2.16663 25.1516C2.69932 24.5232 3.24048 24.231 3.79013 24.2749C4.35135 24.3051 4.87763 24.5289 5.36896 24.9462C5.84664 25.3518 6.14608 25.8293 6.26726 26.3786C6.40002 26.9143 6.20005 27.4963 5.66737 28.1246C5.15784 28.7257 4.61668 29.0179 4.04387 29.0013C3.48265 28.9711 2.9632 28.7531 2.48551 28.3474C1.99418 27.9302 1.68793 27.4469 1.56674 26.8976C1.45715 26.3346 1.65711 25.7526 2.16663 25.1516Z" fill="#FF872D"/>
<path d="M11.8806 9.81844L4.9372 22.2098L8.06963 24.9142L19.0646 16.0348L11.8806 9.81844Z" fill="#FF872D"/>
<rect width="4.60367" height="1.66553" transform="matrix(-0.125041 0.992152 -0.992124 -0.12526 16.3848 0.20874)" fill="#FFF7D9"/>
<rect width="4.6023" height="1.66603" transform="matrix(-0.619817 0.784746 -0.784209 -0.620496 21.6387 7.15649)" fill="#FFF7D9"/>
<rect width="4.6001" height="1.66682" transform="matrix(-0.989284 0.146003 -0.145749 -0.989322 27.291 12.5852)" fill="#FFF7D9"/>
<ellipse cx="19.8198" cy="2.31015" rx="1.0488" ry="1.04965" fill="#547AFF"/>
<ellipse cx="26.9511" cy="15.7452" rx="1.0488" ry="1.04965" fill="#547AFF"/>
<ellipse cx="26.1123" cy="7.34823" rx="1.0488" ry="1.04965" fill="#547AFF"/>
<path d="M9.96218 13.226L17.0935 17.6347L13.9476 20.1539L8.91336 15.1154L9.96218 13.226Z" fill="#FFBA87"/>
<path d="M7.23633 18.0549L11.6403 22.043L10.5916 22.8828L6.18668 19.9436L7.23633 18.0549Z" fill="#FFBA87"/>
</svg>
