<svg width="270" height="40" viewBox="0 0 270 40" fill="none" xmlns="http://www.w3.org/2000/svg">
<path d="M32.5444 24.3886V29.6384H16.8052V16.7269L5 9.35034H18.9045V24.3886H32.5444Z" fill="#FF872D"/>
<path fill-rule="evenodd" clip-rule="evenodd" d="M56.6839 9.35034H52.2209V29.6384H67.96V25.6083H56.6839V9.35034Z" fill="white"/>
<path fill-rule="evenodd" clip-rule="evenodd" d="M102.214 29.6384H117.957V25.6667H106.619V21.4785H116.644V17.5068H106.619V13.3186H117.957V9.35034H102.214V29.6384Z" fill="white"/>
<path fill-rule="evenodd" clip-rule="evenodd" d="M126.739 9.35034H122.276V29.635H138.018V25.6083H126.739V9.35034Z" fill="white"/>
<path fill-rule="evenodd" clip-rule="evenodd" d="M168.885 12.058C167.892 11.1024 166.726 10.3445 165.449 9.82475C162.652 8.72541 159.543 8.72541 156.746 9.82475C155.475 10.3364 154.316 11.0942 153.338 12.0547C152.36 13.0151 151.581 14.1593 151.047 15.4216C150.499 16.7087 150.222 18.0944 150.232 19.4929V19.5513C150.225 20.9555 150.503 22.3466 151.05 23.6399C151.567 24.881 152.33 26.0043 153.294 26.9416C154.285 27.8991 155.452 28.6572 156.729 29.1749C158.108 29.7361 159.584 30.0164 161.072 29.9994C162.564 30.0151 164.045 29.7348 165.429 29.1749C166.699 28.6604 167.856 27.9003 168.832 26.9381C169.808 25.976 170.585 24.8306 171.118 23.5677C171.665 22.2794 171.942 20.8926 171.932 19.4929V19.4345C171.942 18.0374 171.67 16.6527 171.132 15.3632C170.612 14.1218 169.848 12.9978 168.885 12.058ZM167.325 19.5513C167.332 20.4009 167.177 21.2439 166.868 22.0354C166.577 22.7958 166.146 23.495 165.597 24.0968C165.046 24.6881 164.376 25.1564 163.632 25.4711C162.838 25.81 161.983 25.9808 161.12 25.9727C160.25 25.9845 159.388 25.8087 158.591 25.4574C157.847 25.1252 157.174 24.6501 156.612 24.059C156.045 23.4656 155.603 22.7647 155.31 21.9976C155.003 21.2011 154.848 20.3537 154.853 19.4998V19.4414C154.847 18.5919 155.002 17.749 155.31 16.9574C155.603 16.2039 156.034 15.5117 156.582 14.9165C157.13 14.3281 157.794 13.8601 158.533 13.5422C159.331 13.2018 160.191 13.0321 161.058 13.044C161.924 13.0354 162.781 13.2111 163.573 13.5594C164.325 13.8867 165.003 14.3607 165.569 14.9536C166.135 15.5465 166.576 16.2465 166.868 17.0123C167.176 17.8089 167.331 18.6562 167.325 19.5101V19.5513Z" fill="white"/>
<path d="M146.7 9.35034H142.237V29.6384H146.7V9.35034Z" fill="white"/>
<path fill-rule="evenodd" clip-rule="evenodd" d="M99.0226 9.35034H93.6319L85.4033 18.0565V9.35034H80.9402V29.6384H85.4033V23.4335L87.7499 21.0009L94.0373 29.6384H99.4005L90.763 17.9569L99.0226 9.35034Z" fill="white"/>
<path fill-rule="evenodd" clip-rule="evenodd" d="M189.417 22.0214L179.941 9.57023L179.776 9.35034H175.478V10.893V29.635H179.941V16.7544L189.417 29.1952L189.757 29.635H191.736H193.88V9.35034H189.417V22.0214Z" fill="white"/>
<path d="M76.6421 9.35034H72.1791V29.6384H76.6421V9.35034Z" fill="white"/>
<path fill-rule="evenodd" clip-rule="evenodd" d="M32.5443 16.7269L44.3496 9.35034H32.5443V16.7269Z" fill="white"/>
<path fill-rule="evenodd" clip-rule="evenodd" d="M56.6839 9.35034H52.2209V29.6384H67.96V25.6083H56.6839V9.35034Z" fill="white"/>
<path d="M203.536 29.3032V9H207.423L216.069 23.3282H214.009L222.51 9H226.368L226.426 29.3032H222.016L221.987 15.7581H222.8L216.011 27.1568H213.893L206.959 15.7581H207.946V29.3032H203.536Z" fill="white"/>
<path d="M234.987 29.6512C233.614 29.6512 232.347 29.3998 231.187 28.8971C230.045 28.375 229.107 27.6402 228.372 26.6928L230.983 23.5603C231.544 24.295 232.134 24.8558 232.753 25.2425C233.372 25.6099 234.039 25.7936 234.755 25.7936C236.67 25.7936 237.627 24.6721 237.627 22.4291V12.7706H230.49V9H242.298V22.168C242.298 24.6818 241.679 26.5574 240.441 27.7949C239.203 29.0324 237.385 29.6512 234.987 29.6512Z" fill="white"/>
<path d="M255.963 29.6512C253.081 29.6512 250.828 28.8488 249.203 27.2438C247.579 25.6389 246.766 23.3476 246.766 20.3698V9H251.466V20.1957C251.466 22.1294 251.863 23.5216 252.656 24.3724C253.449 25.2232 254.561 25.6486 255.992 25.6486C257.423 25.6486 258.536 25.2232 259.328 24.3724C260.121 23.5216 260.518 22.1294 260.518 20.1957V9H265.16V20.3698C265.16 23.3476 264.348 25.6389 262.723 27.2438C261.098 28.8488 258.845 29.6512 255.963 29.6512Z" fill="white"/>
</svg>
