<svg width="128" height="151" viewBox="0 0 128 151" fill="none" xmlns="http://www.w3.org/2000/svg">
    <path fill-rule="evenodd" clip-rule="evenodd" d="M64.2521 34.678C71.0452 30.7486 88.071 25.5518 104.589 34.8715C106.775 36.1872 110.098 39.4766 105.901 42.1082C104.325 43.0958 103.696 43.4903 103.746 43.7548C103.864 44.3712 107.673 44.2809 111.804 49.3449C117.707 56.5816 125.577 76.976 122.298 91.4495C120.166 100.856 119.143 97.4801 117.968 93.6023C117.335 91.5133 116.658 89.2786 115.739 88.818C114.847 88.3708 114.941 89.8232 115.117 92.5812C115.461 97.9387 116.121 108.223 110.492 119.081C101.965 135.528 92.7831 138.817 92.7831 132.238C92.7831 128.265 91.8262 130.051 90.346 132.813C89.3751 134.625 88.1791 136.856 86.8801 138.159C83.6618 141.387 76.0219 149.051 64.5801 149.957V150.001C64.4704 149.995 64.3611 149.988 64.2521 149.981C64.1431 149.988 64.0338 149.995 63.9242 150.001V149.957C52.4825 149.051 44.8425 141.387 41.6242 138.159C40.3253 136.856 39.1292 134.625 38.1584 132.813C36.6781 130.051 35.7212 128.265 35.7212 132.238C35.7212 138.817 26.5389 135.528 18.0124 119.081C12.3835 108.223 13.0432 97.9387 13.3868 92.5812C13.5637 89.8232 13.6569 88.3708 12.7653 88.818C11.8468 89.2786 11.1695 91.5133 10.5363 93.6023C9.36099 97.4801 8.33782 100.856 6.20653 91.4495C2.92711 76.9761 10.7977 56.5816 16.7007 49.3449C20.8313 44.2809 24.6408 44.3712 24.7581 43.7548C24.8084 43.4904 24.179 43.0958 22.6036 42.1082C18.4059 39.4766 21.7291 36.1872 23.9154 34.8715C40.4333 25.5518 57.459 30.7486 64.2521 34.678Z" fill="#FF872D"/>
    <path fill-rule="evenodd" clip-rule="evenodd" d="M64.2526 56.4236C58.3626 52.7182 45.0473 47.8602 36.2565 56.6346C25.1081 67.7622 15.2655 119.291 63.9233 119.751V119.755C64.0337 119.755 64.1439 119.754 64.2538 119.754C64.3629 119.754 64.4723 119.755 64.582 119.755V119.751C113.24 119.291 103.397 67.7622 92.2487 56.6346C83.4579 47.8602 70.1427 52.7182 64.2526 56.4236Z" fill="#FAD17B"/>
    <path d="M57.9616 73.5935C57.9616 75.4206 56.483 76.9018 54.659 76.9018C52.8351 76.9018 51.3564 75.4206 51.3564 73.5935C51.3564 71.7664 52.8351 70.2852 54.659 70.2852C56.483 70.2852 57.9616 71.7664 57.9616 73.5935Z" fill="#482B14"/>
    <path d="M76.2043 73.5935C76.2043 75.4206 74.7257 76.9018 72.9017 76.9018C71.0777 76.9018 69.5991 75.4206 69.5991 73.5935C69.5991 71.7664 71.0777 70.2852 72.9017 70.2852C74.7257 70.2852 76.2043 71.7664 76.2043 73.5935Z" fill="#482B14"/>
    <path fill-rule="evenodd" clip-rule="evenodd" d="M63.7801 82.2761C67.4392 82.1512 73.6883 82.7847 73.6883 86.2941C73.6883 90.9462 66.4409 93.6046 63.8055 93.6046C63.7973 93.6046 63.7892 93.6045 63.7811 93.6042C63.7726 93.6045 63.7641 93.6046 63.7556 93.6046C61.1202 93.6046 53.8728 90.9463 53.8728 86.2942C53.8728 82.785 60.1209 82.1514 63.7801 82.2761Z" fill="#985B2D"/>
    <path fill-rule="evenodd" clip-rule="evenodd" d="M63.7806 90.7676C64.5623 90.7676 65.196 91.4008 65.196 92.1819V98.8057C65.196 99.5868 64.5623 100.22 63.7806 100.22C62.9989 100.22 62.3652 99.5868 62.3652 98.8057V92.1819C62.3652 91.4008 62.9989 90.7676 63.7806 90.7676Z" fill="#985B2D"/>
    <path fill-rule="evenodd" clip-rule="evenodd" d="M6.66162 61.1645H121.338C121.337 29.4433 95.6663 3.72852 64 3.72852C32.3337 3.72852 6.66293 29.4433 6.66162 61.1645Z" fill="#E29F09"/>
    <path fill-rule="evenodd" clip-rule="evenodd" d="M96.3683 13.7474C92.3111 31.1757 90.0292 49.3131 89.3197 57.4352L77.4053 21.2564L80.1277 6.02987C75.0118 4.53066 69.5996 3.72656 64 3.72656C58.4015 3.72656 52.9903 4.53034 47.8754 6.02897L50.5979 21.2564L38.6834 57.4352C37.974 49.3128 35.6919 31.1744 31.6344 13.7455C16.5556 24.0932 6.66243 41.4705 6.66162 61.1626H121.338C121.338 41.4717 111.446 24.0953 96.3683 13.7474Z" fill="#FFC537"/>
    <path fill-rule="evenodd" clip-rule="evenodd" d="M120.313 50.2012H90.0672C89.9127 51.5007 89.7766 52.7147 89.6586 53.8301H120.887C120.733 52.6081 120.542 51.398 120.313 50.2012ZM7.11035 53.8301H38.3408C38.2228 52.7147 38.0867 51.5007 37.9321 50.2012H7.68391C7.45523 51.398 7.26363 52.6081 7.11035 53.8301ZM86.9695 50.2012H41.0298L39.8347 53.8301H88.1646L86.9695 50.2012Z" fill="#E29F09"/>
    <path fill-rule="evenodd" clip-rule="evenodd" d="M44.6828 57.436C41.3691 57.436 38.6828 54.7497 38.6828 51.436V9.6169C38.6828 7.33346 39.9687 5.22243 42.0779 4.34751C48.8315 1.54601 56.2355 0 64 0C71.7656 0 79.1707 1.54647 85.925 4.34874C88.034 5.22374 89.3198 7.33469 89.3198 9.61802V51.436C89.3198 54.7497 86.6335 57.436 83.3198 57.436H44.6828Z" fill="#FFCA51"/>
    <rect y="53.8301" width="128" height="13.3062" rx="5" fill="#FFB619"/>
    <rect x="33.2068" y="52.0137" width="58.566" height="1.81448" fill="#E29F09"/>
</svg>
