<svg width="200" height="150" viewBox="0 0 200 150" fill="none" xmlns="http://www.w3.org/2000/svg">
<rect width="200" height="150" rx="12" fill="white"/>
<path d="M0 12C0 5.37258 5.37258 0 12 0H188C194.627 0 200 5.37258 200 12V26H0V12Z" fill="#AAAAAA"/>
<circle cx="15" cy="13" r="4" fill="#FF847C"/>
<circle cx="29" cy="13" r="4" fill="#FAD17B"/>
<circle cx="43" cy="13" r="4" fill="#97E17E"/>
<path fill-rule="evenodd" clip-rule="evenodd" d="M95.8895 85.0605C96.0688 84.641 96.0139 84.1438 95.6913 83.8212L66.6875 54.8174C65.9577 54.0877 64.7351 54.8073 65.019 55.7995L73.756 86.3437C76.9482 98.6431 90.274 117.179 111.389 112.955C111.722 112.889 112.075 112.988 112.316 113.228L124.161 125.074C124.552 125.464 125.185 125.464 125.575 125.074L139.075 111.574C139.465 111.184 139.465 110.55 139.075 110.16L127.229 98.3136C126.988 98.0731 126.889 97.7201 126.956 97.3865C131.178 76.2732 112.643 62.9481 100.343 59.756L69.8013 51.0195C68.8091 50.7357 68.0895 51.9583 68.8192 52.688L97.8217 81.6905C98.1443 82.0132 98.6415 82.068 99.0611 81.8887C101.258 80.9497 103.9 81.3767 105.693 83.1696C108.046 85.5229 108.046 89.3384 105.693 91.6918C103.339 94.0451 99.5239 94.0451 97.1705 91.6918C95.3777 89.899 94.9507 87.2576 95.8895 85.0605Z" fill="#547AFF"/>
</svg>
