<svg width="260" height="70" viewBox="0 0 260 70" fill="none" xmlns="http://www.w3.org/2000/svg">
<rect width="260" height="70" rx="35" fill="#FFAB6B"/>
<path d="M101.052 46.408V20.62H97.3564V46.408H101.052ZM89.6564 27.564V26.136H94.9764V23.084H80.5284V26.136H85.9044V27.564C85.9044 31.96 83.8324 36.692 79.4924 38.624L81.5924 41.564C84.6164 40.192 86.6884 37.392 87.8364 34.004C88.9844 37.168 91.0004 39.604 94.0244 40.92L96.0404 38.008C91.7284 36.216 89.6564 31.764 89.6564 27.564ZM123.45 20.62V35.6H118.606V38.12H123.45V40.164H127.146V20.62H123.45ZM113.65 30.7C117.374 30.7 120.062 28.852 120.062 26.108C120.062 23.336 117.374 21.488 113.65 21.488C109.87 21.488 107.21 23.336 107.21 26.108C107.21 28.852 109.87 30.7 113.65 30.7ZM113.65 24.176C115.358 24.176 116.562 24.848 116.562 26.108C116.562 27.368 115.358 28.012 113.65 28.012C111.858 28.012 110.71 27.368 110.71 26.108C110.71 24.848 111.858 24.176 113.65 24.176ZM127.706 45.96V43.02H112.278V39.492H115.834V34.62C117.962 34.48 119.978 34.256 121.994 33.892L121.742 31.26C116.31 31.932 110.038 32.044 105.334 32.044L105.81 34.984C107.742 34.984 109.898 34.956 112.166 34.844V38.288H108.582V45.96H127.706ZM151.448 33.752H155.144V30.7H151.448V20.62H147.752V46.408H151.448V33.752ZM146.072 24.428H140.472V21.068H136.776V24.428H131.064V27.368H146.072V24.428ZM138.652 28.824C134.9 28.824 132.1 31.372 132.1 34.956C132.1 38.624 134.9 41.144 138.652 41.144C142.376 41.144 145.148 38.624 145.148 34.956C145.148 31.372 142.376 28.824 138.652 28.824ZM138.652 38.12C136.86 38.12 135.628 37 135.628 34.984C135.628 32.968 136.86 31.82 138.652 31.82C140.444 31.82 141.648 33.024 141.648 34.956C141.648 36.972 140.444 38.12 138.652 38.12ZM178.438 46.38V20.592H174.714V46.38H178.438ZM170.766 23.28H158.39V26.22H166.986C166.454 31.932 163.598 35.992 157.018 39.128L158.95 42.04C168.106 37.644 170.766 31.148 170.766 23.28Z" fill="white"/>
</svg>
