<svg width="270" height="40" viewBox="0 0 270 40" fill="none" xmlns="http://www.w3.org/2000/svg">
<path d="M50.0135 29.5836V9.41643H55.6527L61.6778 25.4788H60.6093L66.5751 9.41643H72.2143V29.5836H68.3559V12.1827H69.6618L63.1619 29.5836H59.0363L52.5363 12.1827H53.8719V29.5836H50.0135Z" fill="white"/>
<path d="M83.4933 30C81.9104 30 80.5648 29.6926 79.4568 29.0779C78.3685 28.4632 77.5375 27.6105 76.9636 26.5198C76.4096 25.4093 76.1326 24.1501 76.1326 22.7422H80.2878C80.2878 23.6941 80.5648 24.4674 81.1189 25.0623C81.6729 25.6572 82.4644 25.9547 83.4933 25.9547C84.6014 25.9547 85.4126 25.6076 85.9271 24.9136C86.4415 24.1997 86.6988 23.1289 86.6988 21.7011V9.41643H90.854V21.4037C90.854 23.2082 90.6166 24.755 90.1417 26.0439C89.6668 27.313 88.8852 28.2946 87.7969 28.9887C86.7285 29.6629 85.2939 30 83.4933 30Z" fill="white"/>
<path d="M104.831 30C102.872 30 101.22 29.6431 99.8747 28.9292C98.549 28.2153 97.5399 27.1643 96.8473 25.7762C96.1746 24.3881 95.8382 22.6827 95.8382 20.6601V9.41643H99.9935V20.2139C99.9935 22.3754 100.399 23.8725 101.21 24.7054C102.022 25.5382 103.229 25.9547 104.831 25.9547C106.414 25.9547 107.611 25.5382 108.423 24.7054C109.254 23.8725 109.669 22.3754 109.669 20.2139V9.41643H113.824V20.6601C113.824 22.6827 113.478 24.3881 112.786 25.7762C112.113 27.1643 111.104 28.2153 109.758 28.9292C108.433 29.6431 106.79 30 104.831 30Z" fill="white"/>
<path d="M126.533 29.5836V9.41643H130.688V27.3527L128.878 25.5382H141.967V29.5836H126.533Z" fill="white"/>
<path d="M145.895 29.5836V9.41643H150.05V29.5836H145.895Z" fill="white"/>
<path d="M167.223 29.5836L159.536 20.4221H161.94L157.844 24.5567V19.3215L167.283 9.41643H172.774L162.445 20.0354V17.2394L172.803 29.5836H167.223ZM155.025 29.5836V9.41643H159.18V29.5836H155.025Z" fill="white"/>
<path d="M176.01 29.5836V9.41643H191.592V13.4618H178.354L180.165 11.6473V27.3527L178.354 25.5382H191.592V29.5836H176.01ZM179.69 21.3144V17.4476H190.256V21.3144H179.69Z" fill="white"/>
<path d="M195.719 29.5836V9.41643H199.875V27.3527L198.064 25.5382H211.153V29.5836H195.719Z" fill="white"/>
<path d="M215.081 29.5836V9.41643H219.236V29.5836H215.081Z" fill="white"/>
<path d="M234.302 30C232.818 30 231.414 29.7521 230.088 29.2564C228.782 28.7408 227.624 28.0269 226.615 27.1147C225.606 26.1827 224.815 25.0822 224.241 23.813C223.667 22.5241 223.38 21.1062 223.38 19.5595C223.38 17.9533 223.667 16.5057 224.241 15.2167C224.815 13.9278 225.596 12.8173 226.586 11.8853C227.595 10.9533 228.762 10.2394 230.088 9.74363C231.414 9.24788 232.818 9 234.302 9C235.786 9 237.191 9.23796 238.517 9.71388C239.843 10.17 241.01 10.8541 242.019 11.7663C243.029 12.6586 243.81 13.7592 244.364 15.068C244.938 16.3768 245.225 17.8739 245.225 19.5595C245.225 21.1261 244.938 22.5538 244.364 23.8428C243.79 25.1119 242.999 26.2125 241.99 27.1445C241 28.0567 239.843 28.7606 238.517 29.2564C237.211 29.7521 235.806 30 234.302 30ZM234.302 25.8952C235.688 25.8952 236.875 25.6176 237.864 25.0623C238.853 24.4873 239.615 23.7238 240.15 22.772C240.684 21.8003 240.951 20.7295 240.951 19.5595C240.951 18.3895 240.684 17.3187 240.15 16.347C239.615 15.3555 238.853 14.5722 237.864 13.9972C236.875 13.4023 235.688 13.1048 234.302 13.1048C232.937 13.1048 231.76 13.4023 230.771 13.9972C229.781 14.5722 229.01 15.3555 228.455 16.347C227.921 17.3187 227.654 18.3895 227.654 19.5595C227.654 20.7295 227.911 21.8003 228.426 22.772C228.96 23.7238 229.722 24.4873 230.711 25.0623C231.701 25.6176 232.898 25.8952 234.302 25.8952Z" fill="white"/>
<path d="M249.37 29.5836V9.41643H253.881L264.566 25.8357H263.023V9.41643H267V29.5836H262.489L251.774 13.1346H253.347V29.5836H249.37Z" fill="white"/>
<path d="M30.4774 16.9722L42.246 9.59863H30.4774V16.9722Z" fill="white"/>
<path d="M30.46 24.6254V29.8673H14.7686V16.9722L3 9.59863H16.8608V24.6254H30.46Z" fill="#FF872D"/>
</svg>
