<svg width="56" height="56" viewBox="0 0 56 56" fill="none" xmlns="http://www.w3.org/2000/svg">
<circle cx="28" cy="28" r="28" fill="#2F2F2F"/>
<path fill-rule="evenodd" clip-rule="evenodd" d="M15.5659 16.9143C14.6751 16.9143 13.9145 17.654 13.9145 18.6142V37.5569C13.9145 38.5172 14.6751 39.2569 15.5659 39.2569H40.4343C41.3251 39.2569 42.0857 38.5172 42.0857 37.5569V18.6142C42.0857 17.654 41.3251 16.9143 40.4343 16.9143H15.5659ZM11.0002 18.6142C11.0002 16.0872 13.0231 14 15.5659 14H40.4343C42.977 14 44.9999 16.0872 44.9999 18.6142V37.5569C44.9999 40.0839 42.977 42.1712 40.4343 42.1712H15.5659C13.0231 42.1712 11.0002 40.0839 11.0002 37.5569V18.6142Z" fill="#AAAAAA"/>
<path fill-rule="evenodd" clip-rule="evenodd" d="M11.2425 19.5096C11.6869 18.8386 12.591 18.655 13.2619 19.0994L27.1991 28.331C27.4443 28.4902 27.7216 28.5713 28 28.5713C28.2784 28.5713 28.5557 28.4902 28.8008 28.331L42.7381 19.0994C43.409 18.655 44.3131 18.8386 44.7575 19.5096C45.2019 20.1805 45.0183 21.0846 44.3474 21.529L30.3977 30.7689C29.6839 31.235 28.8528 31.4855 28 31.4855C27.1472 31.4855 26.3161 31.235 25.6024 30.7689L25.5944 30.7637L11.6526 21.529C10.9817 21.0846 10.7981 20.1805 11.2425 19.5096Z" fill="#AAAAAA"/>
</svg>
